<svg xmlns="http://www.w3.org/2000/svg" width="24" height="24" role="img" fill="#F7DF1E">
 <title>JavaScript</title>

 <g>
  <title>Layer 1</title>
  <rect id="svg_2" height="13.76771" width="19.77337" y="9.11048" x="3.10482" stroke-width="0" stroke="#000" fill="#fff"/>
  <path id="svg_1" d="m0,0l24,0l0,24l-24,0l0,-24zm22.034,18.276c-0.175,-1.095 -0.888,-2.015 -3.003,-2.873c-0.736,-0.345 -1.554,-0.585 -1.797,-1.14c-0.091,-0.33 -0.105,-0.51 -0.046,-0.705c0.15,-0.646 0.915,-0.84 1.515,-0.66c0.39,0.12 0.75,0.42 0.976,0.9c1.034,-0.676 1.034,-0.676 1.755,-1.125c-0.27,-0.42 -0.404,-0.601 -0.586,-0.78c-0.63,-0.705 -1.469,-1.065 -2.834,-1.034l-0.705,0.089c-0.676,0.165 -1.32,0.525 -1.71,1.005c-1.14,1.291 -0.811,3.541 0.569,4.471c1.365,1.02 3.361,1.244 3.616,2.205c0.24,1.17 -0.87,1.545 -1.966,1.41c-0.811,-0.18 -1.26,-0.586 -1.755,-1.336l-1.83,1.051c0.21,0.48 0.45,0.689 0.81,1.109c1.74,1.756 6.09,1.666 6.871,-1.004c0.029,-0.09 0.24,-0.705 0.074,-1.65l0.046,0.067zm-8.983,-7.245l-2.248,0c0,1.938 -0.009,3.864 -0.009,5.805c0,1.232 0.063,2.363 -0.138,2.711c-0.33,0.689 -1.18,0.601 -1.566,0.48c-0.396,-0.196 -0.597,-0.466 -0.83,-0.855c-0.063,-0.105 -0.11,-0.196 -0.127,-0.196l-1.825,1.125c0.305,0.63 0.75,1.172 1.324,1.517c0.855,0.51 2.004,0.675 3.207,0.405c0.783,-0.226 1.458,-0.691 1.811,-1.411c0.51,-0.93 0.402,-2.07 0.397,-3.346c0.012,-2.054 0,-4.109 0,-6.179l0.004,-0.056z"/>
 </g>
</svg>