<svg xmlns="http://www.w3.org/2000/svg" width="24" height="24" role="img" fill="#777BB4">
 <title>PHP</title>

 <g>
  <title>Layer 1</title>
  <ellipse stroke="#fff" stroke-width="0" ry="5.4687" rx="11.4999" id="svg_3" cy="11.96875" cx="12" fill="#fff"/>
  <path id="svg_1" d="m7.01,10.207l-0.944,0l-0.515,2.648l0.838,0c0.556,0 0.97,-0.105 1.242,-0.314c0.272,-0.21 0.455,-0.559 0.55,-1.049c0.092,-0.47 0.05,-0.802 -0.124,-0.995c-0.175,-0.193 -0.523,-0.29 -1.047,-0.29zm4.99,-4.519c-6.627,0 -12,2.826 -12,6.312s5.373,6.313 12,6.313s12,-2.827 12,-6.313c0,-3.486 -5.373,-6.312 -12,-6.312zm-3.26,7.451c-0.261,0.25 -0.575,0.438 -0.917,0.551c-0.336,0.108 -0.765,0.164 -1.285,0.164l-1.181,0l-0.327,1.681l-1.378,0l1.23,-6.326l2.65,0c0.797,0 1.378,0.209 1.744,0.628c0.366,0.418 0.476,1.002 0.33,1.752a2.836,2.836 0 0 1 -0.305,0.847c-0.143,0.255 -0.33,0.49 -0.561,0.703zm4.024,0.715l0.543,-2.799c0.063,-0.318 0.039,-0.536 -0.068,-0.651c-0.107,-0.116 -0.336,-0.174 -0.687,-0.174l-1.092,0l-0.704,3.625l-1.368,0l1.23,-6.327l1.367,0l-0.327,1.682l1.218,0c0.767,0 1.295,0.134 1.586,0.401s0.378,0.7 0.263,1.299l-0.572,2.944l-1.389,0zm7.597,-2.265a2.782,2.782 0 0 1 -0.305,0.847c-0.143,0.255 -0.33,0.49 -0.561,0.703a2.44,2.44 0 0 1 -0.917,0.551c-0.336,0.108 -0.765,0.164 -1.286,0.164l-1.18,0l-0.327,1.682l-1.378,0l1.23,-6.326l2.649,0c0.797,0 1.378,0.209 1.744,0.628c0.366,0.417 0.477,1.001 0.331,1.751zm-2.595,-1.382l-0.943,0l-0.516,2.648l0.838,0c0.557,0 0.971,-0.105 1.242,-0.314c0.272,-0.21 0.455,-0.559 0.551,-1.049c0.092,-0.47 0.049,-0.802 -0.125,-0.995s-0.524,-0.29 -1.047,-0.29z"/>
 </g>
</svg>