<svg width="24" height="24" viewBox="0 0 24 24" fill="none" xmlns="http://www.w3.org/2000/svg">
<g clip-path="url(#clip0_689_37)">
<path fill-rule="evenodd" clip-rule="evenodd" d="M11.4991 2.13397C11.6511 2.04621 11.8235 2 11.9991 2C12.1746 2 12.3471 2.04621 12.4991 2.13397L14.4991 3.28897C14.7269 3.42253 14.8926 3.64076 14.9601 3.89606C15.0276 4.15135 14.9914 4.42298 14.8594 4.65167C14.7273 4.88036 14.5102 5.04754 14.2553 5.11672C14.0005 5.18591 13.7286 5.15149 13.4991 5.02097L12.9991 4.73197V5.99997C12.9991 6.26519 12.8937 6.51954 12.7062 6.70708C12.5186 6.89462 12.2643 6.99997 11.9991 6.99997C11.7339 6.99997 11.4795 6.89462 11.292 6.70708C11.1044 6.51954 10.9991 6.26519 10.9991 5.99997V4.73197L10.4991 5.02097C10.2695 5.15149 9.99766 5.18591 9.74281 5.11672C9.48797 5.04754 9.27084 4.88036 9.1388 4.65167C9.00677 4.42298 8.97054 4.15135 9.03804 3.89606C9.10554 3.64076 9.27127 3.42253 9.49908 3.28897L11.4991 2.13397ZM7.07108 5.84497C7.20368 6.07465 7.23961 6.3476 7.17098 6.60377C7.10234 6.85995 6.93475 7.07836 6.70508 7.21097L6.20508 7.49997L7.30308 8.13397C7.41772 8.19916 7.51834 8.28637 7.59914 8.3906C7.67995 8.49483 7.73933 8.61401 7.77389 8.74128C7.80844 8.86855 7.81748 9.00141 7.80048 9.13218C7.78348 9.26296 7.74078 9.38909 7.67484 9.5033C7.6089 9.61751 7.52102 9.71755 7.41626 9.79766C7.3115 9.87777 7.19192 9.93636 7.06442 9.97007C6.93693 10.0038 6.80402 10.0119 6.67335 9.99407C6.54269 9.97621 6.41685 9.93267 6.30308 9.86597L5.20508 9.23197V9.80897C5.20508 10.0742 5.09972 10.3285 4.91218 10.5161C4.72465 10.7036 4.47029 10.809 4.20508 10.809C3.93986 10.809 3.68551 10.7036 3.49797 10.5161C3.31043 10.3285 3.20508 10.0742 3.20508 9.80897V7.49997C3.20526 7.32461 3.25155 7.15238 3.33931 7.00056C3.42707 6.84873 3.55321 6.72266 3.70508 6.63497L5.70508 5.47997C5.93476 5.34737 6.2077 5.31144 6.46388 5.38008C6.72005 5.44871 6.93847 5.6163 7.07108 5.84597V5.84497ZM16.9271 5.84497C17.0597 5.6153 17.2781 5.44771 17.5343 5.37908C17.7905 5.31044 18.0634 5.34637 18.2931 5.47897L20.2931 6.63397C20.4451 6.72174 20.5713 6.84797 20.6591 6.99999C20.7469 7.152 20.7931 7.32444 20.7931 7.49997V9.80997C20.7931 10.0752 20.6877 10.3295 20.5002 10.5171C20.3126 10.7046 20.0583 10.81 19.7931 10.81C19.5279 10.81 19.2735 10.7046 19.086 10.5171C18.8984 10.3295 18.7931 10.0752 18.7931 9.80997V9.23197L17.6951 9.86597C17.4655 9.99649 17.1937 10.0309 16.9388 9.96172C16.684 9.89254 16.4668 9.72536 16.3348 9.49667C16.2028 9.26798 16.1665 8.99635 16.234 8.74106C16.3015 8.48576 16.4673 8.26752 16.6951 8.13397L17.7931 7.49997L17.2931 7.21097C17.0634 7.07836 16.8958 6.85995 16.8272 6.60377C16.7585 6.3476 16.7945 6.07465 16.9271 5.84497ZM8.53508 9.99997C8.66769 9.7703 8.88611 9.60271 9.14228 9.53407C9.39845 9.46544 9.6714 9.50137 9.90108 9.63397L11.9991 10.845L14.0971 9.63397C14.3266 9.50346 14.5985 9.46904 14.8533 9.53823C15.1082 9.60741 15.3253 9.77459 15.4574 10.0033C15.5894 10.232 15.6256 10.5036 15.5581 10.7589C15.4906 11.0142 15.3249 11.2324 15.0971 11.366L12.9991 12.577V15C12.9991 15.2652 12.8937 15.5195 12.7062 15.7071C12.5186 15.8946 12.2643 16 11.9991 16C11.7339 16 11.4795 15.8946 11.292 15.7071C11.1044 15.5195 10.9991 15.2652 10.9991 15V12.577L8.90108 11.366C8.67141 11.2334 8.50382 11.0149 8.43518 10.7588C8.36654 10.5026 8.40248 10.2297 8.53508 9.99997ZM4.20508 13.19C4.47029 13.19 4.72465 13.2953 4.91218 13.4829C5.09972 13.6704 5.20508 13.9248 5.20508 14.19V14.768L6.30308 14.134C6.53264 14.0035 6.8045 13.969 7.05934 14.0382C7.31418 14.1074 7.53132 14.2746 7.66335 14.5033C7.79539 14.732 7.83161 15.0036 7.76412 15.2589C7.69662 15.5142 7.53088 15.7324 7.30308 15.866L6.20508 16.5L6.70508 16.789C6.81972 16.8542 6.92034 16.9414 7.00115 17.0456C7.08195 17.1498 7.14133 17.269 7.17589 17.3963C7.21044 17.5236 7.21948 17.6564 7.20248 17.7872C7.18548 17.918 7.14278 18.0441 7.07684 18.1583C7.0109 18.2725 6.92302 18.3726 6.81826 18.4527C6.7135 18.5328 6.59392 18.5914 6.46642 18.6251C6.33892 18.6588 6.20602 18.6669 6.07535 18.6491C5.94469 18.6312 5.81885 18.5877 5.70508 18.521L3.70508 17.366C3.55306 17.2782 3.42683 17.152 3.33906 17C3.25129 16.8479 3.20508 16.6755 3.20508 16.5V14.19C3.20508 13.9248 3.31043 13.6704 3.49797 13.4829C3.68551 13.2953 3.93986 13.19 4.20508 13.19ZM19.7931 13.19C20.0583 13.19 20.3126 13.2953 20.5002 13.4829C20.6877 13.6704 20.7931 13.9248 20.7931 14.19V16.5C20.7931 16.6755 20.7469 16.8479 20.6591 17C20.5713 17.152 20.4451 17.2782 20.2931 17.366L18.2931 18.521C18.1793 18.5877 18.0535 18.6312 17.9228 18.6491C17.7921 18.6669 17.6592 18.6588 17.5317 18.6251C17.4042 18.5914 17.2847 18.5328 17.1799 18.4527C17.0751 18.3726 16.9873 18.2725 16.9213 18.1583C16.8554 18.0441 16.8127 17.918 16.7957 17.7872C16.7787 17.6564 16.7877 17.5236 16.8223 17.3963C16.8568 17.269 16.9162 17.1498 16.997 17.0456C17.0778 16.9414 17.1784 16.8542 17.2931 16.789L17.7931 16.5L16.6951 15.866C16.5804 15.8008 16.4798 15.7136 16.399 15.6093C16.3182 15.5051 16.2588 15.3859 16.2243 15.2587C16.1897 15.1314 16.1807 14.9985 16.1977 14.8678C16.2147 14.737 16.2574 14.6109 16.3233 14.4966C16.3893 14.3824 16.4771 14.2824 16.5819 14.2023C16.6867 14.1222 16.8062 14.0636 16.9337 14.0299C17.0612 13.9962 17.1941 13.988 17.3248 14.0059C17.4555 14.0237 17.5813 14.0673 17.6951 14.134L18.7931 14.768V14.191C18.7931 13.9258 18.8984 13.6714 19.086 13.4839C19.2735 13.2963 19.5279 13.191 19.7931 13.191V13.19ZM11.9991 17C12.2643 17 12.5186 17.1053 12.7062 17.2929C12.8937 17.4804 12.9991 17.7348 12.9991 18V19.268L13.4991 18.979C13.6128 18.9123 13.7387 18.8687 13.8694 18.8509C14 18.833 14.1329 18.8412 14.2604 18.8749C14.3879 18.9086 14.5075 18.9672 14.6123 19.0473C14.717 19.1274 14.8049 19.2274 14.8708 19.3416C14.9368 19.4559 14.9795 19.582 14.9965 19.7128C15.0135 19.8435 15.0044 19.9764 14.9699 20.1037C14.9353 20.2309 14.8759 20.3501 14.7951 20.4543C14.7143 20.5586 14.6137 20.6458 14.4991 20.711L12.4991 21.866C12.3471 21.9537 12.1746 22 11.9991 22C11.8235 22 11.6511 21.9537 11.4991 21.866L9.49908 20.711C9.38443 20.6458 9.28381 20.5586 9.20301 20.4543C9.12221 20.3501 9.06282 20.2309 9.02827 20.1037C8.99371 19.9764 8.98468 19.8435 9.00167 19.7128C9.01867 19.582 9.06137 19.4559 9.12731 19.3416C9.19326 19.2274 9.28114 19.1274 9.3859 19.0473C9.49066 18.9672 9.61023 18.9086 9.73773 18.8749C9.86523 18.8412 9.99814 18.833 10.1288 18.8509C10.2595 18.8687 10.3853 18.9123 10.4991 18.979L10.9991 19.268V18C10.9991 17.7348 11.1044 17.4804 11.292 17.2929C11.4795 17.1053 11.7339 17 11.9991 17Z" fill="#FFFFFF"/>
</g>
<defs>
<clipPath id="clip0_689_37">
<rect width="24" height="24" fill="white"/>
</clipPath>
</defs>
</svg>
