<svg xmlns="http://www.w3.org/2000/svg" width="24" height="24" role="img" fill="#3178C6">
 <title>TypeScript</title>

 <g>
  <title>Layer 1</title>
  <rect id="svg_2" height="13.37614" width="20.43874" y="9.21455" x="2.31568" stroke-width="0" stroke="#000" fill="#fff"/>
  <path id="svg_1" d="m1.125,0c-0.623,0 -1.125,0.502 -1.125,1.125l0,21.75c0,0.623 0.502,1.125 1.125,1.125l21.75,0c0.623,0 1.125,-0.502 1.125,-1.125l0,-21.75c0,-0.623 -0.502,-1.125 -1.125,-1.125l-21.75,0zm17.363,9.75c0.612,0 1.154,0.037 1.627,0.111a6.38,6.38 0 0 1 1.306,0.34l0,2.458a3.95,3.95 0 0 0 -0.643,-0.361a5.093,5.093 0 0 0 -0.717,-0.26a5.453,5.453 0 0 0 -1.426,-0.2c-0.3,0 -0.573,0.028 -0.819,0.086a2.1,2.1 0 0 0 -0.623,0.242c-0.17,0.104 -0.3,0.229 -0.393,0.374a0.888,0.888 0 0 0 -0.14,0.49c0,0.196 0.053,0.373 0.156,0.529c0.104,0.156 0.252,0.304 0.443,0.444s0.423,0.276 0.696,0.41c0.273,0.135 0.582,0.274 0.926,0.416c0.47,0.197 0.892,0.407 1.266,0.628c0.374,0.222 0.695,0.473 0.963,0.753c0.268,0.279 0.472,0.598 0.614,0.957c0.142,0.359 0.214,0.776 0.214,1.253c0,0.657 -0.125,1.21 -0.373,1.656a3.033,3.033 0 0 1 -1.012,1.085a4.38,4.38 0 0 1 -1.487,0.596c-0.566,0.12 -1.163,0.18 -1.79,0.18a9.916,9.916 0 0 1 -1.84,-0.164a5.544,5.544 0 0 1 -1.512,-0.493l0,-2.63a5.033,5.033 0 0 0 3.237,1.2c0.333,0 0.624,-0.03 0.872,-0.09c0.249,-0.06 0.456,-0.144 0.623,-0.25c0.166,-0.108 0.29,-0.234 0.373,-0.38a1.023,1.023 0 0 0 -0.074,-1.089a2.12,2.12 0 0 0 -0.537,-0.5a5.597,5.597 0 0 0 -0.807,-0.444a27.72,27.72 0 0 0 -1.007,-0.436c-0.918,-0.383 -1.602,-0.852 -2.053,-1.405c-0.45,-0.553 -0.676,-1.222 -0.676,-2.005c0,-0.614 0.123,-1.141 0.369,-1.582c0.246,-0.441 0.58,-0.804 1.004,-1.089a4.494,4.494 0 0 1 1.47,-0.629a7.536,7.536 0 0 1 1.77,-0.201zm-15.113,0.188l9.563,0l0,2.166l-3.432,0l0,9.646l-2.717,0l0,-9.646l-3.414,0l0,-2.166z"/>
 </g>
</svg>